<?xml version="1.0" encoding="UTF-8" standalone="no"?>
<!-- Created with Inkscape (http://www.inkscape.org/) -->

<svg
   version="1.1"
   id="svg1"
   width="1658.0757"
   height="1697.7108"
   viewBox="0 0 1658.0757 1697.7108"
   xmlns="http://www.w3.org/2000/svg"
   xmlns:svg="http://www.w3.org/2000/svg">
  <defs
     id="defs1" />
  <g
     id="g1"
     transform="translate(-2504.2346,-2155.5171)">
    <path
       id="path3"
       d="m 22468.5,22610.1 c 1229.7,1238.1 1833,3083.2 1683.9,4969 -241.7,-1719.6 -1102.8,-3302.8 -2427.9,-4498.4 233,-174.9 481.8,-332.4 744,-470.6"
       style="fill:#ffffff;fill-opacity:1;fill-rule:evenodd;stroke:none"
       transform="matrix(0.13333333,0,0,-0.13333333,0,6665.3333)" />
    <path
       id="path4"
       d="m 25794.4,27579.1 c -149.5,-1885.8 454.1,-3730.9 1683.8,-4969 262.3,138.2 511,295.7 744,470.6 -1325.1,1195.6 -2186.1,2778.8 -2427.8,4498.4"
       style="fill:#ffffff;fill-opacity:1;fill-rule:evenodd;stroke:none"
       transform="matrix(0.13333333,0,0,-0.13333333,0,6665.3333)" />
    <path
       id="path5"
       d="m 25437.3,27208.6 v 0 c 47.6,0 86.8,-39.6 86.8,-88.1 v -1542.2 c 0,-48.6 -39.2,-88.3 -86.8,-88.3 -47.9,0 -86.8,39.7 -86.8,88.3 v 1542.2 c 0,48.5 38.9,88.1 86.8,88.1"
       style="fill:#ffffff;fill-opacity:1;fill-rule:evenodd;stroke:none"
       transform="matrix(0.13333333,0,0,-0.13333333,0,6665.3333)" />
    <path
       id="path6"
       d="m 24991.5,27550.9 v 0 c 47.9,0 86.8,-55.5 86.8,-123.1 V 25271 c 0,-67.8 -38.9,-123.1 -86.8,-123.1 v 0 c -47.9,0 -86.8,55.3 -86.8,123.1 v 2156.8 c 0,67.6 38.9,123.1 86.8,123.1"
       style="fill:#ffffff;fill-opacity:1;fill-rule:evenodd;stroke:none"
       transform="matrix(0.13333333,0,0,-0.13333333,0,6665.3333)" />
    <path
       id="path7"
       d="m 24509.4,27208.6 v 0 c 47.9,0 86.8,-39.6 86.8,-88.1 v -1542.2 c 0,-48.6 -38.9,-88.3 -86.8,-88.3 -47.5,0 -86.8,39.7 -86.8,88.3 v 1542.2 c 0,48.5 39.3,88.1 86.8,88.1"
       style="fill:#ffffff;fill-opacity:1;fill-rule:evenodd;stroke:none"
       transform="matrix(0.13333333,0,0,-0.13333333,0,6665.3333)" />
    <path
       id="path8"
       d="m 25387.5,31491.7 c -106.1,105.9 -252.3,171.5 -414,171.5 -161.6,0 -308.2,-65.6 -414.3,-171.5 -105.7,-105.7 -171.3,-252.3 -171.3,-414 0,-161.5 65.6,-307.9 171.3,-413.9 106.1,-105.9 252.7,-171.5 414.3,-171.5 161.7,0 307.9,65.6 414,171.5 105.7,106 171.3,252.4 171.3,413.9 0,161.7 -65.6,308.3 -171.3,414 m -414,333.5 c 206.4,0 393.1,-83.8 528.4,-219.1 135.3,-135.1 218.9,-321.9 218.9,-528.4 0,-206.3 -83.6,-393 -218.9,-528.3 -118.9,-119 -278,-198.2 -455.1,-215.4 v -231.4 h 87.1 v -884.8 c 0,-83.4 -68.1,-151.5 -151.4,-151.5 -83.2,0 -151.4,68.1 -151.4,151.5 v 884.8 h 87.1 v 230 c -184.4,13.3 -350.3,93.7 -473.1,216.8 -135.3,135.3 -219.2,322 -219.2,528.3 0,206.5 83.9,393.3 219.2,528.4 135,135.3 322.1,219.1 528.4,219.1 z m 810.6,-3663.7 1039.4,-925.8 v 1348.9 l -610.3,842.8 c 292.8,1494.9 -145,2981 -1239.7,3923.9 -1095,-942.9 -1532.7,-2429 -1239.9,-3923.9 l -610.4,-842.8 v -1348.9 l 1039.4,925.8 v -400 l 810.9,14.7 v 0 l 810.6,-14.7 v 400"
       style="fill:#ffffff;fill-opacity:1;fill-rule:evenodd;stroke:none"
       transform="matrix(0.13333333,0,0,-0.13333333,0,6665.3333)" />
    <path
       id="path9"
       d="m 20141.6,26834.9 c 0,2086.1 1321.9,3863.4 3173.8,4539.8 39.2,174.9 88.1,346.8 147.2,515.1 -2176.8,-649.6 -3763.6,-2667 -3763.6,-5054.9 0,-2912.8 2361.3,-5274.5 5274.5,-5274.5 2912.9,0 5274.2,2361.7 5274.2,5274.5 0,2388 -1586.7,4405.3 -3763.6,5054.9 59.2,-168.3 108.3,-340.2 147.2,-515.1 1851.9,-676.4 3173.8,-2453.7 3173.8,-4539.8 0,-1464.9 -651.8,-2777.8 -1681.5,-3663.6 32.8,-30.5 65.5,-60.4 98.6,-90.6 -233,-174.9 -481.7,-332.4 -744.3,-470.6 -19,19.3 -38,38.6 -56.6,57.9 -718,-422.3 -1554.6,-664.7 -2447.8,-664.7 -893.5,0 -1730.1,242.4 -2448.1,665 -18.6,-19.6 -37.6,-38.9 -56.9,-58.2 -262.2,138.2 -511,295.7 -744,470.6 33.1,30.2 66.2,60.4 98.7,90.6 -1029.8,885.8 -1681.6,2198.7 -1681.6,3663.6"
       style="fill:#ffffff;fill-opacity:1;fill-rule:evenodd;stroke:none"
       transform="matrix(0.13333333,0,0,-0.13333333,0,6665.3333)" />
    <path
       style="fill:#ffffff;fill-opacity:1;stroke-width:6.60588"
       d="m 1131.7625,1458.1715 c -78.961,-85.6625 -147.30031,-226.1273 -177.53136,-364.8983 -5.54046,-25.4326 -11.47667,-81.9129 -13.19159,-125.5117 l -3.11803,-79.27056 15.98492,56.14998 c 49.04006,172.26218 125.11276,306.48228 248.17496,437.87148 26.4925,28.2851 47.034,52.4498 45.6476,53.6993 -9.6081,8.6603 -79.0378,50.1114 -83.9354,50.1114 -3.345,0 -17.759,-12.6682 -32.0311,-28.1516 z"
       id="path10"
       transform="translate(2504.2346,2155.5171)" />
    <path
       style="fill:#ffffff;fill-opacity:1;stroke-width:6.60588"
       d="m 442.594,1462.0536 c -19.98279,-12.9802 -37.54897,-24.6983 -39.03595,-26.0401 -1.48699,-1.3419 13.42879,-19.5544 33.14617,-40.4724 135.44923,-143.6967 216.5407,-285.0332 260.59788,-454.20312 l 15.48341,-59.45292 0.3248,56.63739 c 0.82398,143.68595 -55.9244,327.50165 -138.5284,448.71245 -32.63209,47.8834 -78.3155,99.1729 -87.95963,98.7537 -4.23277,-0.184 -24.04549,-10.9547 -44.02828,-23.935 z"
       id="path11"
       transform="translate(2504.2346,2155.5171)" />
    <path
       style="fill:#ffffff;fill-opacity:1;stroke-width:6.60588"
       d="M 704.4515,1621.525 C 433.02975,1570.2046 220.59087,1373.3505 147.8071,1105.7167 132.13924,1048.1043 129.99883,1027.9968 129.60608,934.7321 129.22491,844.21613 131.3857,820.50032 144.6529,769.58509 195.56329,574.20741 317.19501,415.00719 489.52223,318.19565 532.14859,294.24863 614.36457,261.9986 614.31005,269.2464 c -0.0203,2.6937 -3.04884,15.74159 -6.73018,28.99531 -5.97081,21.49641 -12.04373,26.63855 -56.25878,47.63619 -138.60749,65.8244 -239.55789,165.94351 -307.33213,304.80134 -47.28085,96.87037 -61.80621,162.85069 -61.80621,280.74992 0,115.09674 14.05038,181.16994 58.4624,274.92464 35.4891,74.9182 59.26038,109.9749 113.71119,167.6956 24.17769,25.6296 40.68629,48.5487 38.69931,53.7267 -1.90585,4.9665 3.25849,13.3175 11.47629,18.5577 54.46462,34.7299 86.86878,52.3952 91.20004,49.7183 2.75626,-1.7034 22.42285,5.5416 43.70355,16.1 170.46148,84.5748 384.44113,87.3286 555.53877,7.1496 30.7753,-14.4219 58.1647,-24.856 60.8652,-23.1869 4.2443,2.6231 36.9102,-15.2273 91.0987,-49.781 8.2178,-5.2402 13.3822,-13.5912 11.4763,-18.5577 -1.9835,-5.1688 14.2252,-27.8007 37.9055,-52.9272 241.8444,-256.6129 232.1345,-669.05985 -21.3813,-908.21382 -56.2664,-53.07883 -93.4702,-78.99244 -167.7039,-116.81096 -55.3951,-28.22114 -59.4087,-31.68863 -67.1919,-58.04857 -8.06,-27.29769 -7.9033,-27.92111 5.9617,-23.7181 41.9012,12.70182 110.7474,46.36585 158.4558,77.48072 157.6658,102.82799 264.2588,257.09688 306.2658,443.2497 13.6468,60.47559 15.1522,208.97596 2.7518,271.45593 -53.3214,268.6624 -250.5249,478.8286 -515.29946,549.1715 -80.96827,21.5109 -214.82026,27.0293 -293.72704,12.1097 z"
       id="path12"
       transform="translate(2504.2346,2155.5171)" />
    <path
       style="fill:#ffffff;fill-opacity:1;stroke-width:6.60588"
       d="m 874.65023,994.18503 c 0.008,-58.13175 1.01895,-81.02862 2.24577,-50.88192 1.22681,30.14669 1.21997,77.70899 -0.0152,105.69409 -1.23518,27.9851 -2.23893,3.3196 -2.23057,-54.81217 z"
       id="path13"
       transform="translate(2504.2346,2155.5171)" />
    <path
       style="fill:#ffffff;fill-opacity:1;stroke-width:6.60588"
       d="m 756.41042,1102.3578 c -6.47839,-16.8824 -0.4862,-210.48442 6.56879,-212.23124 8.95984,-2.21847 12.53922,206.46154 3.69306,215.30774 -4.3466,4.3466 -7.81203,3.3077 -10.26185,-3.0765 z"
       id="path14"
       transform="translate(2504.2346,2155.5171)" />
  </g>
</svg>
